<svg width="24" height="25" viewBox="0 0 24 25" fill="none" xmlns="http://www.w3.org/2000/svg">
<path d="M21.9999 17.7714V20.7714C22.0011 21.0499 21.944 21.3256 21.8324 21.5808C21.7209 21.8359 21.5572 22.065 21.352 22.2533C21.1468 22.4416 20.9045 22.5849 20.6407 22.6741C20.3769 22.7633 20.0973 22.7965 19.8199 22.7714C16.7428 22.4371 13.7869 21.3856 11.1899 19.7014C8.77376 18.1661 6.72527 16.1176 5.18993 13.7014C3.49991 11.0926 2.44818 8.12241 2.11993 5.03142C2.09494 4.75488 2.12781 4.47618 2.21643 4.21304C2.30506 3.9499 2.4475 3.7081 2.6347 3.50304C2.82189 3.29797 3.04974 3.13412 3.30372 3.02194C3.55771 2.90975 3.83227 2.85168 4.10993 2.85142H7.10993C7.59524 2.84664 8.06572 3.01849 8.43369 3.33495C8.80166 3.6514 9.04201 4.09086 9.10993 4.57142C9.23656 5.53148 9.47138 6.47414 9.80993 7.38142C9.94448 7.73934 9.9736 8.12833 9.89384 8.5023C9.81408 8.87626 9.6288 9.21953 9.35993 9.49142L8.08993 10.7614C9.51349 13.265 11.5864 15.3379 14.0899 16.7614L15.3599 15.4914C15.6318 15.2226 15.9751 15.0373 16.3491 14.9575C16.723 14.8778 17.112 14.9069 17.4699 15.0414C18.3772 15.38 19.3199 15.6148 20.2799 15.7414C20.7657 15.8099 21.2093 16.0546 21.5265 16.4289C21.8436 16.8032 22.0121 17.281 21.9999 17.7714Z" stroke="#959595" stroke-width="2" stroke-linecap="round" stroke-linejoin="round"/>
</svg>
